<svg xmlns="http://www.w3.org/2000/svg" viewBox="0 0 30 29.64023"><defs><style>.cls-1{fill:#fff;}.cls-2{fill:#7c1f5d;}</style></defs><g id="Layer_2" data-name="Layer 2"><g id="footer"><ellipse class="cls-1" cx="14.98855" cy="14.69449" rx="13.13873" ry="12.98119"/><path class="cls-2" d="M15,29.64023A14.92793,14.92793,0,0,1,0,14.82014a15.00109,15.00109,0,0,1,30,0A14.92793,14.92793,0,0,1,15,29.64023Zm5.05783-20.833a1.09671,1.09671,0,1,0,1.11,1.09665A1.10337,1.10337,0,0,0,20.05783,8.8072Zm-4.93457,1.40634a4.607,4.607,0,1,0,4.6625,4.60666A4.64023,4.64023,0,0,0,15.12326,10.21354Zm0,7.55757a2.9511,2.9511,0,1,1,2.98661-2.95091A2.97236,2.97236,0,0,1,15.12326,17.77111Zm9.408-6.77957A5.65321,5.65321,0,0,0,18.84409,5.3729H11.3382A5.6532,5.6532,0,0,0,5.651,10.99154v7.41655a5.6532,5.6532,0,0,0,5.68716,5.61864h7.50589a5.65321,5.65321,0,0,0,5.68716-5.61864Zm-1.78112,7.41655a3.88267,3.88267,0,0,1-3.906,3.85888H11.3382a3.88268,3.88268,0,0,1-3.90605-3.85888V10.99154A3.88268,3.88268,0,0,1,11.3382,7.13266h7.50589a3.88267,3.88267,0,0,1,3.906,3.85888Z"/></g></g></svg>