<svg id="Layer_1" data-name="Layer 1" xmlns="http://www.w3.org/2000/svg" viewBox="0 0 120 60.35"><defs><style>.cls-1{fill:#231f20;}.cls-2{fill:#fff;}.cls-3{fill:none;stroke:#7c1f5d;stroke-miterlimit:10;stroke-width:0.5px;}</style></defs><rect class="cls-1" width="120" height="60.35"/><path class="cls-2" d="M24.63,20a8.88,8.88,0,0,0-.91-3.21,5.9,5.9,0,0,0-2-2.29,5.52,5.52,0,0,0-3.21-.82,4.38,4.38,0,0,0-3.11,1.08,3.5,3.5,0,0,0-1.15,2.62A3.44,3.44,0,0,0,15,19.62a7.14,7.14,0,0,0,2.08,1.66q1.3.73,2.94,1.47c.89.37,1.78.79,2.69,1.25a15.47,15.47,0,0,1,2.48,1.59A6.89,6.89,0,0,1,27,27.72a6.07,6.07,0,0,1,.66,2.91,6.26,6.26,0,0,1-1,3.49,6.94,6.94,0,0,1-2.88,2.41,10.62,10.62,0,0,1-4.52.87,11.6,11.6,0,0,1-3.15-.46,11.23,11.23,0,0,1-3-1.29l.17,1.47H11.09L11,29.44h1.67A6.33,6.33,0,0,0,14.81,34a6.93,6.93,0,0,0,4.55,1.55,5.7,5.7,0,0,0,2.41-.49,4.06,4.06,0,0,0,1.71-1.39,3.64,3.64,0,0,0,.63-2.13,3.56,3.56,0,0,0-.86-2.41,7.68,7.68,0,0,0-2.16-1.67c-.87-.46-1.79-.91-2.74-1.33s-1.88-.86-2.77-1.32a13.14,13.14,0,0,1-2.43-1.61,6.69,6.69,0,0,1-1.71-2.14,6.36,6.36,0,0,1-.62-2.91,6.77,6.77,0,0,1,.34-2.06,5.94,5.94,0,0,1,3.47-3.65,9.63,9.63,0,0,1,3.65-.61,13.12,13.12,0,0,1,3,.39,8.27,8.27,0,0,1,3,1.36l-.14-1.47h2.09V20Z" transform="translate(0 0.17)"/><path class="cls-2" d="M43.05,37.4a13.21,13.21,0,0,1-5.67-1.12,10.47,10.47,0,0,1-3.82-3,12.52,12.52,0,0,1-2.16-4.14,15.16,15.16,0,0,1-.7-4.53,14,14,0,0,1,.75-4.45,13,13,0,0,1,2.27-4.13,11.29,11.29,0,0,1,3.8-3,11.85,11.85,0,0,1,5.35-1.15A12.43,12.43,0,0,1,48.4,13a11,11,0,0,1,3.82,3.06,13.53,13.53,0,0,1,2.25,4.13,13.4,13.4,0,0,1,0,8.84,13.36,13.36,0,0,1-2.27,4.15,11.34,11.34,0,0,1-3.78,3.06A11.81,11.81,0,0,1,43.05,37.4Zm.17-1.82a6.64,6.64,0,0,0,3.51-.9,7.65,7.65,0,0,0,2.44-2.43,11.22,11.22,0,0,0,1.41-3.35A15.19,15.19,0,0,0,51,25.26,17.49,17.49,0,0,0,50.51,21a12.51,12.51,0,0,0-1.59-3.73,8.12,8.12,0,0,0-2.63-2.62,6.81,6.81,0,0,0-3.63-1,6.54,6.54,0,0,0-3.52.94A7.65,7.65,0,0,0,36.7,17a11.77,11.77,0,0,0-1.41,3.35,14.47,14.47,0,0,0-.48,3.68,16.7,16.7,0,0,0,.49,3.84,14.42,14.42,0,0,0,1.5,3.77,8.6,8.6,0,0,0,2.6,2.82A6.63,6.63,0,0,0,43.22,35.58Z" transform="translate(0 0.17)"/><path class="cls-2" d="M58.33,36.84V35.3A2.89,2.89,0,0,0,60,34.82a2,2,0,0,0,.65-1.26,13.75,13.75,0,0,0,.14-2.13V16.92c0-.51,0-1,0-1.48s.05-.89.07-1.24l-1.29.07-1.25.07V12.42h16.6l.21,6.31H73.6a5.73,5.73,0,0,0-.66-3,3.22,3.22,0,0,0-1.71-1.4A6.67,6.67,0,0,0,69,14l-2.09.07a2.41,2.41,0,0,0-1.62.45,2.21,2.21,0,0,0-.65,1.29,13.75,13.75,0,0,0-.14,2.13v6l5.27,0-.21-3h1.92v7.75H69.91a4.15,4.15,0,0,0-.44-2.2,1.83,1.83,0,0,0-1.31-.8A11.55,11.55,0,0,0,66,25.57l-1.54.07v6.52c0,.63,0,1.2,0,1.7a8.68,8.68,0,0,1-.09,1.2L65.49,35l1.21,0c.39,0,.75,0,1.08,0v1.92Z" transform="translate(0 0.17)"/><path class="cls-2" d="M86.48,14a2.65,2.65,0,0,0-1.64.47,2,2,0,0,0-.67,1.25A13.66,13.66,0,0,0,84,17.83V32.16c0,.63,0,1.2,0,1.7a10.6,10.6,0,0,1-.09,1.2A12.45,12.45,0,0,1,85.24,35l1.24,0v1.92H77.89V35.3a2.92,2.92,0,0,0,1.66-.48,2,2,0,0,0,.65-1.26,13.75,13.75,0,0,0,.14-2.13V16.92c0-.51,0-1,0-1.48s0-.89.07-1.24l-1.29.07-1.26.07V12.42h8.59ZM81,10.43,86,7.5A3.06,3.06,0,0,0,87,6.58a1.58,1.58,0,0,0,.25-.93A1.63,1.63,0,0,0,87,4.89a1.42,1.42,0,0,0-.59-.42,1.59,1.59,0,0,0-.94-.09A2.19,2.19,0,0,0,84.28,5L80.06,9.21Z" transform="translate(0 0.17)"/><path class="cls-2" d="M88.39,36.84V35.27A2.19,2.19,0,0,0,90,34.71a4.54,4.54,0,0,0,.94-1.52c.26-.64.54-1.35.84-2.14l7-19.29h1.4l7.64,19.57c.18.44.39,1,.63,1.79a6.09,6.09,0,0,1,.31,1.94Q109.4,35,110,35l1.1,0v1.92h-8.48V35.3a2,2,0,0,0,1.62-.54,1.57,1.57,0,0,0,.32-1.23,6.1,6.1,0,0,0-.37-1.47l-1-2.83-8.55.21-1,3c-.14.46-.29.91-.46,1.32s-.32.83-.48,1.23C93,35,93.48,35,94,34.94l1.27,0v2Zm6.81-9.28h7.32l-2.2-5.9c-.28-.76-.54-1.52-.8-2.28s-.49-1.48-.7-2.18h0l-.63,1.92c-.23.7-.5,1.45-.8,2.27Z" transform="translate(0 0.17)"/><line class="cls-3" x1="102.48" y1="40.73" x2="19.03" y2="40.73"/><path class="cls-2" d="M42.51,53.15c-.28-.64-.56-1.28-.85-1.91s-.57-1.28-.84-1.93c-.09-.21-.18-.41-.26-.62s-.17-.42-.25-.63l-.25-.63v.21a1.48,1.48,0,0,0,0,.21c0,.23,0,.51,0,.83s0,.67,0,1,0,.74,0,1.1,0,.72,0,1c0,.15,0,.29,0,.43s0,.27,0,.39l.36,0,.36,0v.42H38.8v-.31a.69.69,0,0,0,.43-.13.54.54,0,0,0,.18-.32,3,3,0,0,0,.05-.44l.18-4.36c0-.13,0-.26,0-.39s0-.25,0-.37h-.35l-.34,0v-.41h1.47l1.64,3.8c.09.19.17.38.25.57s.16.39.25.58l.25.58h0l.25-.62.24-.61c.28-.71.57-1.41.87-2.12s.61-1.43.9-2.18h1.42v.31a.75.75,0,0,0-.39.09.58.58,0,0,0-.23.33,2,2,0,0,0,0,.63l.25,4.36c0,.1,0,.21,0,.31v.28l.35,0h.34v.42H44.7v-.31a.68.68,0,0,0,.44-.15.62.62,0,0,0,.18-.38,4,4,0,0,0,0-.61l-.19-3.17c0-.1,0-.2,0-.3s0-.21,0-.31,0-.2,0-.31l-.06.15-.06.16L42.8,53.15Z" transform="translate(0 0.17)"/><path class="cls-2" d="M47.16,53.05v-.31a.61.61,0,0,0,.44-.16,1.21,1.21,0,0,0,.26-.42c.06-.18.14-.39.23-.62l2-5.38h.23l2.14,5.45c0,.14.11.31.17.52a1.41,1.41,0,0,1,.08.54l.32,0,.33,0v.42H51.14v-.31a.63.63,0,0,0,.48-.17.49.49,0,0,0,.08-.36,1.93,1.93,0,0,0-.09-.38l-.34-.91L48.78,51l-.34,1c0,.15-.08.27-.11.36l-.12.3.37,0,.37,0v.42Zm1.76-2.48h2.22l-.68-1.83c-.07-.2-.15-.39-.22-.59L50,47.56h0l-.2.54-.21.54Z" transform="translate(0 0.17)"/><path class="cls-2" d="M53.79,53.05v-.31a.75.75,0,0,0,.5-.17.66.66,0,0,0,.15-.41c0-.18,0-.38,0-.6V47.42c0-.13,0-.25,0-.37s0-.23,0-.32l-.35,0-.34,0v-.42H56v.31a.71.71,0,0,0-.5.16.69.69,0,0,0-.15.42c0,.17,0,.37,0,.6v1.57H56l1.2-1.89c.08-.12.19-.26.31-.42a2.23,2.23,0,0,1,.37-.38H57.3v-.39h2.06v.31a3,3,0,0,0-.72.14,1.72,1.72,0,0,0-.61.37,3.55,3.55,0,0,0-.61.79l-.94,1.49a1.42,1.42,0,0,1,.45.38l.35.43,1.07,1.43a5.81,5.81,0,0,0,.6.71,1.21,1.21,0,0,0,.42.28,1.32,1.32,0,0,0,.39.06v.31H58.59a.43.43,0,0,1-.25-.13,2.86,2.86,0,0,1-.34-.35l-.38-.46-1.15-1.55q-.18-.24-.36-.45a1.3,1.3,0,0,0-.36-.32h-.46v2.12c0,.17,0,.32,0,.45a2.54,2.54,0,0,1,0,.31l.34,0,.35,0v.42Z" transform="translate(0 0.17)"/><path class="cls-2" d="M63.72,50.57a1.12,1.12,0,0,0-.12-.6.49.49,0,0,0-.36-.22,2.72,2.72,0,0,0-.66,0l-.7,0V52c0,.17,0,.32,0,.44a2.69,2.69,0,0,1,0,.31l1.83,0a2,2,0,0,0,.73-.14,1,1,0,0,0,.47-.46,1.82,1.82,0,0,0,.18-.89h.32l0,1.87H60.38v-.31a.75.75,0,0,0,.5-.17.66.66,0,0,0,.15-.41c0-.18,0-.38,0-.6V47.42c0-.13,0-.25,0-.37s0-.23,0-.32l-.34,0-.35,0v-.42H65L65,48h-.32a1.75,1.75,0,0,0-.17-.85.87.87,0,0,0-.47-.4,1.89,1.89,0,0,0-.65-.09l-.83,0a.88.88,0,0,0-.5.13.54.54,0,0,0-.19.37,5.6,5.6,0,0,0,0,.64v1.53h1.8l-.07-.82H64v2Z" transform="translate(0 0.17)"/><path class="cls-2" d="M70.87,46.66a.62.62,0,0,0-.45.14.51.51,0,0,0-.17.31,1.89,1.89,0,0,0,0,.31v2.41a7,7,0,0,0,.07,1,2.85,2.85,0,0,0,.28.91,1.52,1.52,0,0,0,.59.64,2,2,0,0,0,1,.24A1.74,1.74,0,0,0,74,51.43a4.05,4.05,0,0,0,.22-1.32l0-2.69c0-.13,0-.25,0-.37s0-.23,0-.32l-.34,0-.34,0v-.42h1.79v.31a.73.73,0,0,0-.51.16.69.69,0,0,0-.15.42c0,.17,0,.37,0,.6v2.22a5.1,5.1,0,0,1-.14,1.19,3.05,3.05,0,0,1-.43,1,2.23,2.23,0,0,1-.8.69,2.61,2.61,0,0,1-1.21.26A3.48,3.48,0,0,1,70.79,53a1.74,1.74,0,0,1-.83-.62,2.64,2.64,0,0,1-.45-1.06,7.59,7.59,0,0,1-.13-1.53V47.84c0-.17,0-.36,0-.59s0-.4,0-.52h-.35l-.34,0v-.41h2.14Z" transform="translate(0 0.17)"/><path class="cls-2" d="M76.21,52.74a.75.75,0,0,0,.5-.17.72.72,0,0,0,.14-.41c0-.18,0-.38,0-.6V47.42c0-.13,0-.25,0-.37a2.88,2.88,0,0,1,0-.32l-.35,0-.34,0v-.42l1,0h1.09a5.1,5.1,0,0,1,1.57.21,2,2,0,0,1,1,.62,1.67,1.67,0,0,1,.37,1,2.51,2.51,0,0,1-.11.79,2,2,0,0,1-.48.76,2.39,2.39,0,0,1-1,.58,5,5,0,0,1-1.62.22H77.7v1.84a2.32,2.32,0,0,1,0,.31l.3,0,.29,0h.29v.43H76.21Zm1.49-2.61.31,0h.32a2.18,2.18,0,0,0,1-.22,1.79,1.79,0,0,0,.72-.61,1.69,1.69,0,0,0,.27-1,1.79,1.79,0,0,0-.15-.77,1.23,1.23,0,0,0-.4-.52,1.82,1.82,0,0,0-.63-.29,3.32,3.32,0,0,0-.8-.09.64.64,0,0,0-.47.14.62.62,0,0,0-.14.4c0,.17,0,.37,0,.6Z" transform="translate(0 0.17)"/></svg>