<svg xmlns="http://www.w3.org/2000/svg" viewBox="0 0 130 128.44125"><defs><style>.cls-1{fill:#231f20;}.cls-2,.cls-4{fill:none;stroke-miterlimit:10;}.cls-2{stroke:#fff;}.cls-3{fill:#fff;}.cls-4{stroke:#7c1f5d;}</style></defs><g id="Layer_2" data-name="Layer 2"><g id="footer"><rect class="cls-1" width="130" height="128.44125"/><ellipse class="cls-2" cx="65" cy="64.22062" rx="55.70624" ry="55.0383"/><path class="cls-3" d="M30.91309,54.48178a8.33484,8.33484,0,0,0-.86914-3.03711,5.64431,5.64431,0,0,0-1.9375-2.16308,5.33576,5.33576,0,0,0-3.07422-.77539,4.19869,4.19869,0,0,0-2.97364,1.02343,3.427,3.427,0,0,0-.36816,4.63868,6.96079,6.96079,0,0,0,1.98828,1.56738q1.25391.69287,2.82324,1.38672,1.27.52881,2.57325,1.18847a14.20423,14.20423,0,0,1,2.37207,1.502,6.465,6.465,0,0,1,1.7041,2.01367,5.707,5.707,0,0,1,.63476,2.75684,5.81327,5.81327,0,0,1-.96875,3.30078,6.4823,6.4823,0,0,1-2.75683,2.27832,10.27592,10.27592,0,0,1-4.32715.82519A11.58142,11.58142,0,0,1,22.71,70.558a11.07553,11.07553,0,0,1-2.89062-1.2207l.167,1.38574H17.94824l-.13379-7.26269H19.419a6.00828,6.00828,0,0,0,2.08789,4.3418,6.72547,6.72547,0,0,0,4.36035,1.46875,5.58825,5.58825,0,0,0,2.30566-.46192,3.88549,3.88549,0,0,0,1.6377-1.32031,3.42276,3.42276,0,0,0,.60058-2.01367,3.31227,3.31227,0,0,0-.81836-2.27832,7.24232,7.24232,0,0,0-2.07129-1.585q-1.2539-.65919-2.623-1.25391-1.37109-.59473-2.65625-1.25488a12.65379,12.65379,0,0,1-2.32227-1.51856,6.41226,6.41226,0,0,1-1.63769-2.03027,5.96563,5.96563,0,0,1-.60059-2.75586,6.25525,6.25525,0,0,1,.334-1.94824,5.6427,5.6427,0,0,1,1.13574-1.94727,5.76294,5.76294,0,0,1,2.18847-1.50195A9.139,9.139,0,0,1,24.832,46.8226a12.941,12.941,0,0,1,2.85645.36328A8.073,8.073,0,0,1,30.5791,48.473l-.13379-1.38672H32.4502v7.39551Z"/><path class="cls-3" d="M48.55469,70.98764A12.72366,12.72366,0,0,1,43.125,69.931a9.98219,9.98219,0,0,1-3.6582-2.82226,11.93723,11.93723,0,0,1-2.07227-3.91211,14.36886,14.36886,0,0,1-.668-4.292,13.09894,13.09894,0,0,1,.71875-4.209,12.42494,12.42494,0,0,1,2.17188-3.91113,10.87128,10.87128,0,0,1,3.6416-2.87207A11.37412,11.37412,0,0,1,48.3877,46.8226a11.915,11.915,0,0,1,5.29589,1.08985,10.532,10.532,0,0,1,3.65918,2.88769,12.74584,12.74584,0,0,1,2.1543,12.28125,12.6229,12.6229,0,0,1-2.17187,3.92774,10.81321,10.81321,0,0,1-3.625,2.88867A11.34863,11.34863,0,0,1,48.55469,70.98764Zm.167-1.71679a6.36966,6.36966,0,0,0,3.3584-.8584,7.13909,7.13909,0,0,0,2.33887-2.294,10.6238,10.6238,0,0,0,1.35253-3.16992,14.11771,14.11771,0,0,0,.43457-3.44922,16.4366,16.4366,0,0,0-.501-4.07715A11.77217,11.77217,0,0,0,54.18457,51.89a7.81879,7.81879,0,0,0-2.52246-2.47559,6.58784,6.58784,0,0,0-3.47461-.9082,6.26493,6.26493,0,0,0-3.375.8916A7.22538,7.22538,0,0,0,42.47363,51.725a11.23036,11.23036,0,0,0-1.35351,3.16894,13.77372,13.77372,0,0,0-.45117,3.4834,15.329,15.329,0,0,0,.46777,3.63086,13.18914,13.18914,0,0,0,1.4375,3.56543,8.1093,8.1093,0,0,0,2.48926,2.67383A6.391,6.391,0,0,0,48.72168,69.27085Z"/><path class="cls-3" d="M63.18945,70.45932V69.00717a2.787,2.787,0,0,0,1.58789-.46289,1.87489,1.87489,0,0,0,.61817-1.18847,12.61716,12.61716,0,0,0,.13281-2.01368V51.60971q0-.72655.03418-1.40332.03222-.67675.06641-1.17187-.56837.03369-1.23633.0664-.668.03224-1.20313.06543V47.35092H79.09473l.20019,5.97559h-1.4707a5.35006,5.35006,0,0,0-.63477-2.87207,3.06007,3.06007,0,0,0-1.63672-1.32129,6.34758,6.34758,0,0,0-2.17187-.29688l-2.00488.06641a2.31512,2.31512,0,0,0-1.55371.42871,2.01506,2.01506,0,0,0-.61817,1.22168,12.50482,12.50482,0,0,0-.13379,2.01367v5.67774l5.0459.0332L73.915,55.40561h1.83789v7.3291H74.2832a3.89447,3.89447,0,0,0-.418-2.08008,1.755,1.755,0,0,0-1.25293-.75878,11.66087,11.66087,0,0,0-2.07128-.09961l-1.47071.0664v6.17285q0,.89209-.0166,1.60157a9.36046,9.36046,0,0,1-.083,1.13867c.334-.02149.69532-.03809,1.08594-.04981q.583-.01611,1.15234-.04882c.37891-.02247.72364-.03321,1.03614-.03321v1.81543Z"/><path class="cls-3" d="M90.15332,48.80307a2.58124,2.58124,0,0,0-1.57031.44629,1.88884,1.88884,0,0,0-.63477,1.18848,12.42894,12.42894,0,0,0-.13379,2.03027V66.03549q0,.89209-.0166,1.60157a9.36046,9.36046,0,0,1-.083,1.13867q.5669-.06592,1.25293-.083.68409-.01611,1.18555-.04883v1.81543H81.93359V69.00717a2.787,2.787,0,0,0,1.58789-.46289,1.87489,1.87489,0,0,0,.61817-1.18847,12.61716,12.61716,0,0,0,.13281-2.01368V51.60971q0-.72655.03418-1.40332.03224-.67675.06641-1.17187-.56836.03369-1.23633.0664-.668.03224-1.20313.06543V47.35092h8.21973Zm-5.24512-3.334,4.81055-2.77344a2.9555,2.9555,0,0,0,.90234-.874,1.47529,1.47529,0,0,0,0-1.60157,1.63149,1.63149,0,0,0-.56738-.3955,1.59324,1.59324,0,0,0-.90234-.083,2.1581,2.1581,0,0,0-1.10254.61035l-4.043,3.96191Z"/><path class="cls-3" d="M91.99023,70.45932V68.974a2.093,2.093,0,0,0,1.53711-.52832,4.197,4.197,0,0,0,.90235-1.43652q.36767-.90675.80176-2.03028l6.75-18.25488h1.33593l7.31739,18.51953q.26806.627.60156,1.7002a5.534,5.534,0,0,1,.30078,1.832q.56837-.06592,1.11914-.083.55224-.01611,1.05273-.04883v1.81543h-8.11914V69.00717a2.02319,2.02319,0,0,0,1.55371-.51172,1.51226,1.51226,0,0,0,.30079-1.17187,5.77458,5.77458,0,0,0-.35157-1.38672l-1.002-2.67383-8.18652.19727-.96875,2.87207c-.13379.4414-.27832.8584-.43457,1.25488q-.23292.59474-.46778,1.15527.60206-.06591,1.28711-.082.68409-.01611,1.21875-.0498v1.84863Zm6.51563-8.78125h7.0166L103.418,56.099q-.40137-1.08984-.76856-2.16211-.36767-1.07226-.668-2.06348h-.03418q-.26661.82618-.60157,1.81543-.334.99024-.76757,2.14649Z"/><line class="cls-4" x1="105.48443" y1="73.98071" x2="25.55017" y2="73.98071"/><path class="cls-3" d="M48.0459,85.89292q-.40284-.90675-.81641-1.8086-.41309-.90234-.80761-1.82715-.12891-.29-.252-.585c-.083-.19629-.16211-.39453-.23926-.59375q-.11426-.29883-.23339-.59863c0,.06641-.002.13281-.00489.20019-.00293.06641-.00488.13282-.00488.19922-.00586.21778-.01367.47852-.02246.78418-.00879.30469-.01953.63184-.03223.9795q-.019.52-.02734,1.042c-.00586.34765-.0127.67578-.01856.9834-.00586.13379-.01074.2666-.01367.39941s-.01074.25684-.02344.37207c.11622-.00586.23145-.01269.34473-.01855s.22754-.01172.34375-.01758v.39844H44.48535v-.29883a.6652.6652,0,0,0,.418-.12305.5101.5101,0,0,0,.16992-.30371,2.74284,2.74284,0,0,0,.0459-.4082l.17383-4.13379c.00683-.1211.01074-.24219.01367-.36231.00391-.12109.00781-.23926.01465-.35351-.11035.00586-.2207.00976-.33106.01269-.10937.00391-.21972.00781-.33007.01367v-.38964h1.40429l1.57813,3.5996c.0791.18165.15722.36231.23437.54395.07618.18164.15528.3623.23828.544q.12306.27246.24317.55273H48.377q.10108-.24463.23828-.584c.0918-.22754.168-.42188.2295-.585q.40283-.99755.83984-1.999.43506-1.002.85742-2.07226h1.3584v.2998a.62437.62437,0,0,0-.376.08594.52829.52829,0,0,0-.21093.3125,1.82254,1.82254,0,0,0-.0459.58984l.23828,4.125a2.63773,2.63773,0,0,1,.01855.29883V85.43c.11036-.00585.22168-.00976.335-.01367.11328-.00293.2246-.00683.335-.01269v.39844H50.13867v-.29883a.63418.63418,0,0,0,.42188-.13672.5787.5787,0,0,0,.16992-.36231,3.10848,3.10848,0,0,0,.01367-.58007L50.56055,81.432c-.00586-.09668-.0127-.19336-.01856-.29l-.01758-.29c-.00683-.09668-.01269-.19336-.01855-.29-.01856.042-.03809.08789-.05957.13574a1.58422,1.58422,0,0,0-.05957.1543l-2.06543,5.041Z"/><path class="cls-3" d="M52.49707,85.8021v-.29883a.57474.57474,0,0,0,.42188-.14551,1.10752,1.10752,0,0,0,.24316-.39844c.06445-.16992.13867-.36621.22461-.58984l1.89062-5.08594h.21973l2.04688,5.1582q.07323.19044.165.49024a1.34933,1.34933,0,0,1,.07325.50781c.10449-.00586.208-.01269.3125-.01855l.31152-.01758v.39844H56.30469v-.29883a.57837.57837,0,0,0,.459-.1543.45094.45094,0,0,0,.083-.34473,1.62417,1.62417,0,0,0-.0918-.3623l-.32129-.85254-2.38574.05469-.32129.96972c-.043.14551-.081.25977-.11523.34473-.0332.085-.07129.17773-.11426.28125.12207-.00586.24316-.01269.36231-.01855s.2373-.01172.35351-.01758v.39844Zm1.68848-2.34864h2.11914L55.65332,81.722q-.10107-.28125-.206-.55762-.10548-.27685-.207-.55762h-.01855q-.09083.25488-.1875.50782-.09667.25488-.19727.5166Z"/><path class="cls-3" d="M58.84668,85.8021v-.29883a.68559.68559,0,0,0,.47656-.15918.605.605,0,0,0,.14258-.38965c.00879-.166.01367-.35547.01367-.56641V80.471c0-.12109.00293-.2373.00977-.34863.00586-.11231.01172-.21387.01758-.30371l-.33008.01757c-.11035.00586-.21973.0127-.33008.01856v-.39941h2.06445v.2998a.6485.6485,0,0,0-.47265.15332.60446.60446,0,0,0-.14649.39063c-.00976.16308-.01367.35351-.01367.57031v1.4873h.6875l1.14746-1.78613c.0791-.12109.17774-.25391.29395-.39844a2.25579,2.25579,0,0,1,.35742-.36328c-.0918.00586-.18457.00977-.2793.00977-.0957,0-.18847.00293-.28027.00879v-.37207h1.97265v.2998a2.76232,2.76232,0,0,0-.6875.127,1.61659,1.61659,0,0,0-.57812.34864,3.58679,3.58679,0,0,0-.58789.748l-.89942,1.41407a1.55669,1.55669,0,0,1,.43165.35839c.11035.13575.21972.27344.33007.41211L63.21484,84.515a5.95836,5.95836,0,0,0,.57325.666,1.08057,1.08057,0,0,0,.40332.26758,1.28012,1.28012,0,0,0,.37207.05469v.29883H63.44434a.432.432,0,0,1-.24317-.127,2.84521,2.84521,0,0,1-.32617-.33105q-.17432-.20361-.35742-.43067L61.416,83.44467c-.11622-.15039-.23243-.29492-.34864-.43066a1.44775,1.44775,0,0,0-.33984-.30371l-.44922.00879V84.723c0,.16309-.002.30371-.00488.42188a2.46467,2.46467,0,0,1-.02246.29492c.10937-.00586.21972-.01269.33007-.01855l.33008-.01758v.39844Z"/><path class="cls-3" d="M68.35352,83.45346a1.10351,1.10351,0,0,0-.11036-.57031.473.473,0,0,0-.34863-.209,3.369,3.369,0,0,0-.63281-.01856l-.66992.02734v2.07618c0,.16308-.002.30273-.00489.417a2.40691,2.40691,0,0,1-.02246.29l1.752-.02637a1.903,1.903,0,0,0,.69726-.13184.90837.90837,0,0,0,.459-.43066,1.79369,1.79369,0,0,0,.165-.84277h.3125l-.05469,1.76758H65.16016v-.29883a.68559.68559,0,0,0,.47656-.15918.605.605,0,0,0,.14258-.38965c.00879-.166.01367-.35547.01367-.56641V80.471c0-.12109.00293-.2373.00976-.34863.00586-.11231.01172-.21387.01758-.30371l-.33008.01757c-.11035.00586-.21972.0127-.33007.01856v-.39941h4.41406l.0459,1.58691h-.30274a1.60383,1.60383,0,0,0-.166-.81152.81265.81265,0,0,0-.44434-.37207,1.80684,1.80684,0,0,0-.6289-.08594l-.78907.01855a.81408.81408,0,0,0-.48633.127.5124.5124,0,0,0-.17871.34863,4.54224,4.54224,0,0,0-.03222.60254v1.45117l1.72461.00879-.06348-.7793h.40332v1.90332Z"/><path class="cls-3" d="M75.208,79.75522a.61583.61583,0,0,0-.43555.127.51452.51452,0,0,0-.16113.29395,1.94445,1.94445,0,0,0-.02735.29492V82.7562a6.86717,6.86717,0,0,0,.06934.9834,2.771,2.771,0,0,0,.26074.85644,1.46837,1.46837,0,0,0,.57422.60742,1.92739,1.92739,0,0,0,.99512.22656,1.7716,1.7716,0,0,0,1.07812-.30761,1.79074,1.79074,0,0,0,.61524-.85254,3.78808,3.78808,0,0,0,.20605-1.251l.02832-2.54785q0-.18163.00879-.34863c.00586-.11231.0127-.21387.01856-.30371-.11035.00586-.21875.01172-.32618.01757-.10644.00586-.21582.0127-.32519.01856v-.39941h1.70605v.2998a.66257.66257,0,0,0-.48144.15332.60446.60446,0,0,0-.14649.39063c-.00976.16308-.01367.35351-.01367.57031L78.833,82.973a4.79118,4.79118,0,0,1-.12891,1.125,2.7859,2.7859,0,0,1-.417.95118,2.03531,2.03531,0,0,1-.76172.6582,2.55684,2.55684,0,0,1-1.16113.24023,3.49207,3.49207,0,0,1-1.23438-.19043,1.741,1.741,0,0,1-.79785-.58984,2.51942,2.51942,0,0,1-.42676-1.00586,7.08732,7.08732,0,0,1-.1289-1.45117V80.86948c0-.15625.00488-.34278.01367-.55664.00976-.21485.01758-.37989.02344-.49414-.11035.00586-.22071.00976-.33008.01269-.11035.00391-.2207.00781-.33106.01367v-.38964H75.208Z"/><path class="cls-3" d="M80.32031,85.50327a.68564.68564,0,0,0,.47657-.15918.60508.60508,0,0,0,.14257-.38965c.00879-.166.01368-.35547.01368-.56641V80.471c0-.12109.00292-.2373.00976-.34863.00586-.11231.01172-.21387.01758-.30371l-.33008.01757c-.11035.00586-.21973.0127-.33008.01856v-.39941q.48633-.00879,1-.01368.51417-.00439,1.0459-.0039a4.83759,4.83759,0,0,1,1.49609.19922,1.95694,1.95694,0,0,1,.92676.58886,1.60662,1.60662,0,0,1,.34864.97071,2.03674,2.03674,0,0,1-.10547.73828,1.83488,1.83488,0,0,1-.459.72558,2.39613,2.39613,0,0,1-.94043.54883,4.85481,4.85481,0,0,1-1.55078.208h-.13769c-.06739,0-.13184-.00293-.19239-.00879V84.723c0,.16309-.00195.30371-.00488.42188a2.46467,2.46467,0,0,1-.02246.29492c.09766-.00586.19238-.01269.28418-.01855s.18457-.01075.2793-.01368.18847-.00781.28027-.01367v.40821h-2.248Zm1.43164-2.4668c.11621.0127.21582.02051.29785.02344.083.00293.18165.0039.29883.0039a2.19431,2.19431,0,0,0,.9541-.2041,1.688,1.688,0,0,0,.68848-.584,1.58713,1.58713,0,0,0,.25684-.90723,1.75531,1.75531,0,0,0-.1377-.72949,1.215,1.215,0,0,0-.39062-.49024,1.69464,1.69464,0,0,0-.60059-.27148,3.20311,3.20311,0,0,0-.77051-.08594.48609.48609,0,0,0-.583.51172c-.00977.16016-.01368.34961-.01368.56641Z"/></g></g></svg>