<svg xmlns="http://www.w3.org/2000/svg" viewBox="0 0 14 9.81435"><defs><style>.cls-1{fill:#7c1f5d;}</style></defs><g id="Layer_2" data-name="Layer 2"><g id="footer"><path class="cls-1" d="M13.995.21505,13.9887.19237a.24694.24694,0,0,0-.0088-.02676l-.0108-.021a.25616.25616,0,0,0-.01377-.02394L13.93873.1,13.92625.08444,13.92215.081,13.90182.06383,13.88063.04729,13.86111.03644A.27782.27782,0,0,0,13.83359.0223L13.81282.01549a.28435.28435,0,0,0-.0304-.00893L13.7587.00348c-.0085-.00105-.01676-.003-.02542-.00331l-.006.0003L13.72246,0H.27772L.27245.00051.26656.00017C.25774.00051.24935.00246.24073.00354l-.02294.003A.29192.29192,0,0,0,.18562.016L.16681.02217A.2799.2799,0,0,0,.13633.03783L.12.0469A.27415.27415,0,0,0,.09508.06632L.07864.08017.07357.08444.06036.1011.0444.12124.03158.14351.01949.16759l-.00724.022A.24451.24451,0,0,0,.00482.21743L.00245.23958,0,.26239V9.552a.27074.27074,0,0,0,.27772.26239H13.72246A.27058.27058,0,0,0,14,9.552V.26239L13.998.24381A.25134.25134,0,0,0,13.995.21505ZM.55524.86181,6.81172,6.32473a.28931.28931,0,0,0,.37674.00007L13.44476.862V9.28965H.55524Zm.432-.337H13.01292L7.00018,5.775Z"/></g></g></svg>